{"title":"The Patriot*2000*[BluRay][1080p][ENG, POL, multisub]","uid":5920203,"size":8049076224,"categoryP":"video","categoryS":"hd___movies","magnet":"?xt=urn:btih:f47e8df4b107469021408ed0a4bfaef38f117428&amp;dn=The+Patriot%2A2000%2A%5BBluRay%5D%5B1080p%5D%5BENG%2C+POL%2C+multisub%5D&amp;tr=udp%3A%2F%2Ftracker.openbittorrent.com%3A80&amp;tr=udp%3A%2F%2Fopen.demonii.com%3A1337&amp;tr=udp%3A%2F%2Ftracker.coppersurfer.tk%3A6969&amp;tr=udp%3A%2F%2Fexodus.desync.com%3A6969","seeders":0,"leechers":2,"uploader":"albedo040","files":1,"time":1288398080,"description":"The Patriot*2000*[BluRay][1080p][ENG, POL, multisub]\n\nGeneral information:\nCountry: Germany, USA \nRelease: 27 June 2000\nGenre: Action, Drama, War \nDirector: Roland Emmerich\nScreenplay: Robert Rodat\nOriginal Music: John Williams\nCinematography by: Caleb Deschanel \nDuration: 2h 55mn\nLanguage: English, Polish\nSubtitles: English, Polish, French, Dutch, Czech, Arabic, Bulgarian, Croatian, Danish, Finnish, Greek, Hebrew, Hindi, Hungarian, Icelandic, Korean, Norwegian, Romanian, Slovenian, Swedish, Turkish, Spanish, Portuguese\nRating: 7.6/10 - 24732 votes \n\nCast:\nMel Gibson  ...  Benjamin Martin  \nHeath Ledger  ...  Gabriel Martin  \nJoely Richardson  ...  Charlotte Selton  \nJason Isaacs  ...  Col. William Tavington  \nChris Cooper  ...  Col. Harry Burwell  \nTchÃƒÂ©ky Karyo  ...  Jean Villeneuve  \nRene Auberjonois  ...  Reverend Oliver  \nLisa Brenner  ...  Anne Howard  \nTom Wilkinson  ...  Gen. Lord Charles Cornwallis  \nDonal Logue  ...  Dan Scott  \nLeon Rippy  ...  John Billings  \nAdam Baldwin  ...  Capt. Wilkins  \nJay Arlen Jones  ...  Occam  \nJoey D. Vieira  ...  Peter Howard  \nGregory Smith  ...  Thomas Martin  \n\nPlot:\nPeaceful farmer Benjamin Martin is driven to lead the Colonial Militia during the American Revolution when a sadistic British officer murders his son. \n\nSpecifications:\nGeneral\nFormat                           : BDAV\nFormat/Info                      : Blu-ray Video\nOverall bit rate                 : 6 129 Kbps\nMaximum Overall bit rate         : 35.5 Mbps\n\nVideo\nFormat                           : AVC\nFormat/Info                      : Advanced Video Codec\nFormat profile                   : &lt;a class=&quot;__cf_email__&quot; href=&quot;/cdn-cgi/l/email-protection&quot; data-cfemail=&quot;367e5f515e767a021807&quot;&gt;[email&amp;#160;protected]&lt;/a&gt;&lt;script cf-hash='f9e31' type=&quot;text/javascript&quot;&gt;\n/* &lt;![CDATA[ */!function(){try{var t=&quot;currentScript&quot;in document?document.currentScript:function(){for(var t=document.getElementsByTagName(&quot;script&quot;),e=t.length;e--;)if(t[e].getAttribute(&quot;cf-hash&quot;))return t[e]}();if(t&amp;&amp;t.previousSibling){var e,r,n,i,c=t.previousSibling,a=c.getAttribute(&quot;data-cfemail&quot;);if(a){for(e=&quot;&quot;,r=parseInt(a.substr(0,2),16),n=2;a.length-n;n+=2)i=parseInt(a.substr(n,2),16)^r,e+=String.fromCharCode(i);e=document.createTextNode(e),c.parentNode.replaceChild(e,c)}}}catch(u){}}();/* ]]&gt; */&lt;/script&gt;\nFormat settings, CABAC           : Yes\nFormat settings, ReFrames        : 3 frames\nBit rate mode                    : Variable\nBit rate                         : 4 550 Kbps\nNominal bit rate                 : 4 028 Kbps\nMaximum bit rate                 : 40.0 Mbps\nWidth                            : 1 920 pixels\nHeight                           : 1 080 pixels\nDisplay aspect ratio             : 16:9\nFrame rate                       : 23.976 fps\n\nAudio 1\nFormat                           : AC-3\nFormat/Info                      : Audio Coding 3\nMode extension                   : CM (complete main)\nBit rate mode                    : Constant\nBit rate                         : 640 Kbps\nChannel(s)                       : 6 channels\nChannel positions                : Front: L C R, Side: L R, LFE\nSampling rate                    : 48.0 KHz\nStream size                      : 802 MiB (10%)\nLanguage                         : English\n\nAudio 2\nFormat                           : AC-3\nFormat/Info                      : Audio Coding 3\nMode extension                   : CM (complete main)\nDuration                         : 2h 55mn\nBit rate mode                    : Constant\nBit rate                         : 640 Kbps\nChannel(s)                       : 6 channels\nChannel positions                : Front: L C R, Side: L R, LFE\nSampling rate                    : 48.0 KHz\nStream size                      : 802 MiB (10%)\nLanguage                         : Polish\n\nText \nFormat                           : PGS\n","torrent":{"xt":"urn:btih:f47e8df4b107469021408ed0a4bfaef38f117428","amp;dn":"The+Patriot%2A2000%2A%5BBluRay%5D%5B1080p%5D%5BENG%2C+POL%2C+multisub%5D","amp;tr":["udp%3A%2F%2Ftracker.openbittorrent.com%3A80","udp%3A%2F%2Fopen.demonii.com%3A1337","udp%3A%2F%2Ftracker.coppersurfer.tk%3A6969","udp%3A%2F%2Fexodus.desync.com%3A6969"],"infoHash":"f47e8df4b107469021408ed0a4bfaef38f117428","infoHashBuffer":{"type":"Buffer","data":[244,126,141,244,177,7,70,144,33,64,142,208,164,191,174,243,143,17,116,40]},"announce":[],"urlList":[]}}